<svg xmlns="http://www.w3.org/2000/svg" xmlns:xlink="http://www.w3.org/1999/xlink" version="1.1" data-diagram-type="CLASS" style="width:2419px;height:879px;background:#FFFFFF;" width="2419px" height="879px" viewBox="0 0 2419 879" zoomAndPan="magnify" preserveAspectRatio="none" contentStyleType="text/css"><?plantuml 1.2026.8beta1?><defs/><g font-family="sans-serif" lengthAdjust="spacing"><!--cluster 1--><g class="cluster" data-qualified-name="1" id="ent0003" data-source-line="7"><path d="M628.5,6 L639.241,6 A3.75,3.75 0 0 1 641.741,8.5 L648.741,28.297 L1427.5,28.297 A2.5,2.5 0 0 1 1430,30.797 L1430,194.06 A2.5,2.5 0 0 1 1427.5,196.56 L628.5,196.56 A2.5,2.5 0 0 1 626,194.06 L626,8.5 A2.5,2.5 0 0 1 628.5,6" style="stroke:#000;stroke-width:1.5;" fill="none"/><line x1="626" y1="28.297" x2="648.741" y2="28.297" style="stroke:#000;stroke-width:1.5;"/><text x="630" y="20.995" fill="#000" font-size="14" font-weight="700">1</text></g><!--cluster  Ingress Boundary--><g class="cluster" data-qualified-name="1. Ingress Boundary" id="ent0001" data-source-line="6"><path d="M652.5,49 L797.232,49 A3.75,3.75 0 0 1 799.732,51.5 L806.732,71.297 L1403.5,71.297 A2.5,2.5 0 0 1 1406,73.797 L1406,170.06 A2.5,2.5 0 0 1 1403.5,172.56 L652.5,172.56 A2.5,2.5 0 0 1 650,170.06 L650,51.5 A2.5,2.5 0 0 1 652.5,49" style="stroke:#000;stroke-width:1.5;" fill="none"/><line x1="650" y1="71.297" x2="806.732" y2="71.297" style="stroke:#000;stroke-width:1.5;"/><text x="658.874" y="63.995" fill="#000" font-size="14" textLength="138.858" font-weight="700">Ingress Boundary</text></g><!--cluster 2--><g class="cluster" data-qualified-name="2" id="ent0007" data-source-line="16"><path d="M793.5,220.56 L804.241,220.56 A3.75,3.75 0 0 1 806.741,223.06 L813.741,242.857 L1340.5,242.857 A2.5,2.5 0 0 1 1343,245.357 L1343,441.22 A2.5,2.5 0 0 1 1340.5,443.72 L793.5,443.72 A2.5,2.5 0 0 1 791,441.22 L791,223.06 A2.5,2.5 0 0 1 793.5,220.56" style="stroke:#000;stroke-width:1.5;" fill="none"/><line x1="791" y1="242.857" x2="813.741" y2="242.857" style="stroke:#000;stroke-width:1.5;"/><text x="795" y="235.555" fill="#000" font-size="14" font-weight="700">2</text></g><!--cluster  Pipeline Coordination--><g class="cluster" data-qualified-name="2. Pipeline Coordination" id="ent0005" data-source-line="15"><path d="M817.5,263.56 L993.609,263.56 A3.75,3.75 0 0 1 996.109,266.06 L1003.109,285.857 L1316.5,285.857 A2.5,2.5 0 0 1 1319,288.357 L1319,417.22 A2.5,2.5 0 0 1 1316.5,419.72 L817.5,419.72 A2.5,2.5 0 0 1 815,417.22 L815,266.06 A2.5,2.5 0 0 1 817.5,263.56" style="stroke:#000;stroke-width:1.5;" fill="none"/><line x1="815" y1="285.857" x2="1003.109" y2="285.857" style="stroke:#000;stroke-width:1.5;"/><text x="823.874" y="278.555" fill="#000" font-size="14" textLength="170.235" font-weight="700">Pipeline Coordination</text></g><!--cluster 3--><g class="cluster" data-qualified-name="3" id="ent0010" data-source-line="24"><path d="M8.5,475.86 L19.241,475.86 A3.75,3.75 0 0 1 21.741,478.36 L28.741,498.157 L1016.5,498.157 A2.5,2.5 0 0 1 1019,500.657 L1019,861.56 A2.5,2.5 0 0 1 1016.5,864.06 L8.5,864.06 A2.5,2.5 0 0 1 6,861.56 L6,478.36 A2.5,2.5 0 0 1 8.5,475.86" style="stroke:#000;stroke-width:1.5;" fill="none"/><line x1="6" y1="498.157" x2="28.741" y2="498.157" style="stroke:#000;stroke-width:1.5;"/><text x="10" y="490.855" fill="#000" font-size="14" font-weight="700">3</text></g><!--cluster  Feature Engineering & Fusion--><g class="cluster" data-qualified-name="3. Feature Engineering . Fusion" id="ent0008" data-source-line="23"><path d="M32.5,518.86 L274.016,518.86 A3.75,3.75 0 0 1 276.516,521.36 L283.516,541.157 L992.5,541.157 A2.5,2.5 0 0 1 995,543.657 L995,837.56 A2.5,2.5 0 0 1 992.5,840.06 L32.5,840.06 A2.5,2.5 0 0 1 30,837.56 L30,521.36 A2.5,2.5 0 0 1 32.5,518.86" style="stroke:#000;stroke-width:1.5;" fill="none"/><line x1="30" y1="541.157" x2="283.516" y2="541.157" style="stroke:#000;stroke-width:1.5;"/><text x="38.874" y="533.855" fill="#000" font-size="14" textLength="235.642" font-weight="700">Feature Engineering &amp; Fusion</text></g><!--cluster 4--><g class="cluster" data-qualified-name="4" id="ent0017" data-source-line="48"><path d="M1045.5,467.72 L1056.241,467.72 A3.75,3.75 0 0 1 1058.741,470.22 L1065.741,490.017 L1995.5,490.017 A2.5,2.5 0 0 1 1998,492.517 L1998,861.56 A2.5,2.5 0 0 1 1995.5,864.06 L1045.5,864.06 A2.5,2.5 0 0 1 1043,861.56 L1043,470.22 A2.5,2.5 0 0 1 1045.5,467.72" style="stroke:#000;stroke-width:1.5;" fill="none"/><line x1="1043" y1="490.017" x2="1065.741" y2="490.017" style="stroke:#000;stroke-width:1.5;"/><text x="1047" y="482.715" fill="#000" font-size="14" font-weight="700">4</text></g><!--cluster  Spatial Inference & Tariff--><g class="cluster" data-qualified-name="4. Spatial Inference . Tariff" id="ent0015" data-source-line="47"><path d="M1069.5,510.72 L1275.298,510.72 A3.75,3.75 0 0 1 1277.798,513.22 L1284.798,533.017 L1971.5,533.017 A2.5,2.5 0 0 1 1974,535.517 L1974,837.56 A2.5,2.5 0 0 1 1971.5,840.06 L1069.5,840.06 A2.5,2.5 0 0 1 1067,837.56 L1067,513.22 A2.5,2.5 0 0 1 1069.5,510.72" style="stroke:#000;stroke-width:1.5;" fill="none"/><line x1="1067" y1="533.017" x2="1284.798" y2="533.017" style="stroke:#000;stroke-width:1.5;"/><text x="1075.874" y="525.715" fill="#000" font-size="14" textLength="199.924" font-weight="700">Spatial Inference &amp; Tariff</text></g><!--cluster 5--><g class="cluster" data-qualified-name="5" id="ent0022" data-source-line="66"><path d="M2024.5,484.01 L2035.241,484.01 A3.75,3.75 0 0 1 2037.741,486.51 L2044.741,506.307 L2401.5,506.307 A2.5,2.5 0 0 1 2404,508.807 L2404,680.11 A2.5,2.5 0 0 1 2401.5,682.61 L2024.5,682.61 A2.5,2.5 0 0 1 2022,680.11 L2022,486.51 A2.5,2.5 0 0 1 2024.5,484.01" style="stroke:#000;stroke-width:1.5;" fill="none"/><line x1="2022" y1="506.307" x2="2044.741" y2="506.307" style="stroke:#000;stroke-width:1.5;"/><text x="2026" y="499.005" fill="#000" font-size="14" font-weight="700">5</text></g><!--cluster  Persistence Layer--><g class="cluster" data-qualified-name="5. Persistence Layer" id="ent0020" data-source-line="65"><path d="M2048.5,527.01 L2195.215,527.01 A3.75,3.75 0 0 1 2197.715,529.51 L2204.715,549.307 L2377.5,549.307 A2.5,2.5 0 0 1 2380,551.807 L2380,656.11 A2.5,2.5 0 0 1 2377.5,658.61 L2048.5,658.61 A2.5,2.5 0 0 1 2046,656.11 L2046,529.51 A2.5,2.5 0 0 1 2048.5,527.01" style="stroke:#000;stroke-width:1.5;" fill="none"/><line x1="2046" y1="549.307" x2="2204.715" y2="549.307" style="stroke:#000;stroke-width:1.5;"/><text x="2054.874" y="542.005" fill="#000" font-size="14" textLength="140.841" font-weight="700">Persistence Layer</text></g><!--class FastAPIController--><g class="entity" data-qualified-name="1. Ingress Boundary.FastAPIController" id="ent0002" data-source-line="7"><rect x="666.37" y="84" width="421.268" height="72.563" fill="#F1F1F1" style="stroke:#181818;stroke-width:0.5;" rx="2.5" ry="2.5"/><ellipse cx="812.386" cy="104.133" rx="11" ry="11" fill="#ADD1B2" style="stroke:#181818;stroke-width:1;"/><path d="M815.354,109.773 Q814.776,110.07 814.136,110.211 Q813.495,110.367 812.792,110.367 Q810.292,110.367 808.964,108.727 Q807.651,107.07 807.651,103.945 Q807.651,100.82 808.964,99.164 Q810.292,97.508 812.792,97.508 Q813.495,97.508 814.136,97.664 Q814.792,97.82 815.354,98.117 L815.354,100.836 Q814.729,100.258 814.136,99.992 Q813.542,99.711 812.917,99.711 Q811.573,99.711 810.886,100.789 Q810.198,101.852 810.198,103.945 Q810.198,106.039 810.886,107.117 Q811.573,108.18 812.917,108.18 Q813.542,108.18 814.136,107.914 Q814.729,107.633 815.354,107.055 L815.354,109.773 Z " fill="#000"/><text x="857.016" y="100.139" fill="#000" font-size="12" textLength="72.475" font-style="italic">«Boundary»</text><text x="832.886" y="115.964" fill="#000" font-size="14" textLength="120.736">FastAPIController</text><line x1="667.37" y1="124.266" x2="1086.638" y2="124.266" style="stroke:#181818;stroke-width:0.5;"/><line x1="667.37" y1="132.266" x2="1086.638" y2="132.266" style="stroke:#181818;stroke-width:0.5;"/><text x="672.37" y="149.261" fill="#000" font-size="14" textLength="409.268">+optimizePrice(q: PricingQueryDTO): PredictionResultDTO</text></g><!--class MLOpsController--><g class="entity" data-qualified-name="1. Ingress Boundary.MLOpsController" id="ent0004" data-source-line="10"><rect x="1122.4" y="84" width="267.192" height="72.563" fill="#F1F1F1" style="stroke:#181818;stroke-width:0.5;" rx="2.5" ry="2.5"/><ellipse cx="1193.62" cy="104.133" rx="11" ry="11" fill="#ADD1B2" style="stroke:#181818;stroke-width:1;"/><path d="M1196.589,109.773 Q1196.011,110.07 1195.37,110.211 Q1194.73,110.367 1194.026,110.367 Q1191.526,110.367 1190.198,108.727 Q1188.886,107.07 1188.886,103.945 Q1188.886,100.82 1190.198,99.164 Q1191.526,97.508 1194.026,97.508 Q1194.73,97.508 1195.37,97.664 Q1196.026,97.82 1196.589,98.117 L1196.589,100.836 Q1195.964,100.258 1195.37,99.992 Q1194.776,99.711 1194.151,99.711 Q1192.808,99.711 1192.12,100.789 Q1191.433,101.852 1191.433,103.945 Q1191.433,106.039 1192.12,107.117 Q1192.808,108.18 1194.151,108.18 Q1194.776,108.18 1195.37,107.914 Q1195.964,107.633 1196.589,107.055 L1196.589,109.773 Z " fill="#000"/><text x="1236.009" y="100.139" fill="#000" font-size="12" textLength="72.475" font-style="italic">«Boundary»</text><text x="1214.12" y="115.964" fill="#000" font-size="14" textLength="116.252">MLOpsController</text><line x1="1123.4" y1="124.266" x2="1388.592" y2="124.266" style="stroke:#181818;stroke-width:0.5;"/><line x1="1123.4" y1="132.266" x2="1388.592" y2="132.266" style="stroke:#181818;stroke-width:0.5;"/><text x="1128.4" y="149.261" fill="#000" font-size="14" textLength="255.192">+triggerRetrain(): RetrainResultDTO</text></g><!--class PricingPipelineOrchestrator--><g class="entity" data-qualified-name="2. Pipeline Coordination.PricingPipelineOrchestrator" id="ent0006" data-source-line="16"><rect x="830.85" y="298.56" width="472.291" height="105.156" fill="#F1F1F1" style="stroke:#181818;stroke-width:0.5;" rx="2.5" ry="2.5"/><ellipse cx="967.036" cy="318.693" rx="11" ry="11" fill="#ADD1B2" style="stroke:#181818;stroke-width:1;"/><path d="M970.004,324.333 Q969.426,324.63 968.786,324.771 Q968.145,324.927 967.442,324.927 Q964.942,324.927 963.614,323.287 Q962.301,321.63 962.301,318.505 Q962.301,315.38 963.614,313.724 Q964.942,312.068 967.442,312.068 Q968.145,312.068 968.786,312.224 Q969.442,312.38 970.004,312.677 L970.004,315.396 Q969.379,314.818 968.786,314.552 Q968.192,314.271 967.567,314.271 Q966.223,314.271 965.536,315.349 Q964.848,316.412 964.848,318.505 Q964.848,320.599 965.536,321.677 Q966.223,322.74 967.567,322.74 Q968.192,322.74 968.786,322.474 Q969.379,322.193 970.004,321.615 L970.004,324.333 Z " fill="#000"/><text x="1054.3" y="314.699" fill="#000" font-size="12" textLength="57.891" font-style="italic">«Facade»</text><text x="987.536" y="330.524" fill="#000" font-size="14" textLength="191.42">PricingPipelineOrchestrator</text><line x1="831.85" y1="338.826" x2="1302.141" y2="338.826" style="stroke:#181818;stroke-width:0.5;"/><line x1="831.85" y1="346.826" x2="1302.141" y2="346.826" style="stroke:#181818;stroke-width:0.5;"/><text x="836.85" y="363.821" fill="#000" font-size="14" textLength="460.291">+executeOptimization(q: PricingQueryDTO): PredictionResultDTO</text><text x="836.85" y="380.118" fill="#000" font-size="14" textLength="259.041">+retrainPipeline(): RetrainResultDTO</text><text x="836.85" y="396.414" fill="#000" font-size="14" textLength="309.47">+updateTuning(k: int, weights: float[]): bool</text></g><!--class BaseTextVectorizer--><g class="entity" data-qualified-name="3. Feature Engineering . Fusion.BaseTextVectorizer" id="ent0009" data-source-line="24"><rect x="53.52" y="718.9" width="182.953" height="105.156" fill="#F1F1F1" style="stroke:#181818;stroke-width:0.5;" rx="2.5" ry="2.5"/><ellipse cx="75.098" cy="739.033" rx="11" ry="11" fill="#A9DCDF" style="stroke:#181818;stroke-width:1;"/><path d="M75.207,734.377 L74.051,739.455 L76.379,739.455 L75.207,734.377 Z M73.723,732.142 L76.707,732.142 L80.066,744.533 L77.613,744.533 L76.848,741.47 L73.566,741.47 L72.816,744.533 L70.379,744.533 L73.723,732.142 Z " fill="#000"/><text x="126.199" y="735.039" fill="#000" font-size="12" textLength="65.057" font-style="italic">«Abstract»</text><text x="90.559" y="750.864" fill="#000" font-size="14" textLength="136.336" font-style="italic">BaseTextVectorizer</text><line x1="54.52" y1="759.166" x2="235.473" y2="759.166" style="stroke:#181818;stroke-width:0.5;"/><text x="59.52" y="776.161" fill="#000" font-size="14" textLength="145.284">#vocabularySize: int</text><line x1="54.52" y1="783.463" x2="235.473" y2="783.463" style="stroke:#181818;stroke-width:0.5;"/><text x="59.52" y="800.458" fill="#000" font-size="14" textLength="84.034" font-style="italic">+fit(corpus)</text><text x="59.52" y="816.754" fill="#000" font-size="14" textLength="170.953" font-style="italic">+transform(text): float[]</text></g><!--class TfidfSvdVectorizer--><g class="entity" data-qualified-name="3. Feature Engineering . Fusion.TfidfSvdVectorizer" id="ent0011" data-source-line="29"><rect x="45.79" y="553.86" width="212.423" height="96.891" fill="#F1F1F1" style="stroke:#181818;stroke-width:0.5;" rx="2.5" ry="2.5"/><ellipse cx="84.133" cy="569.86" rx="11" ry="11" fill="#ADD1B2" style="stroke:#181818;stroke-width:1;"/><path d="M87.102,575.501 Q86.523,575.797 85.883,575.938 Q85.242,576.094 84.539,576.094 Q82.039,576.094 80.711,574.454 Q79.398,572.797 79.398,569.672 Q79.398,566.547 80.711,564.891 Q82.039,563.235 84.539,563.235 Q85.242,563.235 85.883,563.391 Q86.539,563.547 87.102,563.844 L87.102,566.563 Q86.477,565.985 85.883,565.719 Q85.289,565.438 84.664,565.438 Q83.32,565.438 82.633,566.516 Q81.945,567.579 81.945,569.672 Q81.945,571.766 82.633,572.844 Q83.32,573.907 84.664,573.907 Q85.289,573.907 85.883,573.641 Q86.477,573.36 87.102,572.782 L87.102,575.501 Z " fill="#000"/><text x="103.32" y="574.707" fill="#000" font-size="14" textLength="128.55">TfidfSvdVectorizer</text><line x1="46.79" y1="585.86" x2="257.213" y2="585.86" style="stroke:#181818;stroke-width:0.5;"/><text x="51.79" y="602.855" fill="#000" font-size="14" textLength="200.423">-latentComponents: int = 50</text><line x1="46.79" y1="610.157" x2="257.213" y2="610.157" style="stroke:#181818;stroke-width:0.5;"/><text x="51.79" y="627.152" fill="#000" font-size="14" textLength="84.034">+fit(corpus)</text><text x="51.79" y="643.449" fill="#000" font-size="14" textLength="170.953">+transform(text): float[]</text></g><!--class MetadataNormalizer--><g class="entity" data-qualified-name="3. Feature Engineering . Fusion.MetadataNormalizer" id="ent0012" data-source-line="34"><rect x="293.35" y="570.16" width="329.29" height="64.297" fill="#F1F1F1" style="stroke:#181818;stroke-width:0.5;" rx="2.5" ry="2.5"/><ellipse cx="382.344" cy="586.16" rx="11" ry="11" fill="#ADD1B2" style="stroke:#181818;stroke-width:1;"/><path d="M385.312,591.801 Q384.734,592.098 384.094,592.238 Q383.453,592.394 382.75,592.394 Q380.25,592.394 378.922,590.754 Q377.609,589.098 377.609,585.973 Q377.609,582.848 378.922,581.191 Q380.25,579.535 382.75,579.535 Q383.453,579.535 384.094,579.691 Q384.75,579.848 385.312,580.144 L385.312,582.863 Q384.687,582.285 384.094,582.019 Q383.5,581.738 382.875,581.738 Q381.531,581.738 380.844,582.816 Q380.156,583.879 380.156,585.973 Q380.156,588.066 380.844,589.144 Q381.531,590.207 382.875,590.207 Q383.5,590.207 384.094,589.941 Q384.687,589.66 385.312,589.082 L385.312,591.801 Z " fill="#000"/><text x="402.844" y="591.007" fill="#000" font-size="14" textLength="142.803">MetadataNormalizer</text><line x1="294.35" y1="602.16" x2="621.64" y2="602.16" style="stroke:#181818;stroke-width:0.5;"/><line x1="294.35" y1="610.16" x2="621.64" y2="610.16" style="stroke:#181818;stroke-width:0.5;"/><text x="299.35" y="627.155" fill="#000" font-size="14" textLength="317.29">+normalizeContinuous(ppp, cost, sat): float[]</text></g><!--class VectorFusionService--><g class="entity" data-qualified-name="3. Feature Engineering . Fusion.VectorFusionService" id="ent0013" data-source-line="37"><rect x="657.19" y="570.16" width="321.627" height="64.297" fill="#F1F1F1" style="stroke:#181818;stroke-width:0.5;" rx="2.5" ry="2.5"/><ellipse cx="742.26" cy="586.16" rx="11" ry="11" fill="#ADD1B2" style="stroke:#181818;stroke-width:1;"/><path d="M745.229,591.801 Q744.65,592.098 744.01,592.238 Q743.369,592.394 742.666,592.394 Q740.166,592.394 738.838,590.754 Q737.525,589.098 737.525,585.973 Q737.525,582.848 738.838,581.191 Q740.166,579.535 742.666,579.535 Q743.369,579.535 744.01,579.691 Q744.666,579.848 745.229,580.144 L745.229,582.863 Q744.604,582.285 744.01,582.019 Q743.416,581.738 742.791,581.738 Q741.447,581.738 740.76,582.816 Q740.072,583.879 740.072,585.973 Q740.072,588.066 740.76,589.144 Q741.447,590.207 742.791,590.207 Q743.416,590.207 744.01,589.941 Q744.604,589.66 745.229,589.082 L745.229,591.801 Z " fill="#000"/><text x="762.76" y="591.007" fill="#000" font-size="14" textLength="142.987">VectorFusionService</text><line x1="658.19" y1="602.16" x2="977.817" y2="602.16" style="stroke:#181818;stroke-width:0.5;"/><line x1="658.19" y1="610.16" x2="977.817" y2="610.16" style="stroke:#181818;stroke-width:0.5;"/><text x="663.19" y="627.155" fill="#000" font-size="14" textLength="309.627">+fuse(textVec, metaVec): HybridCoordinate</text></g><!--class HybridCoordinate--><g class="entity" data-qualified-name="3. Feature Engineering . Fusion.HybridCoordinate" id="ent0014" data-source-line="40"><rect x="737.78" y="718.9" width="160.436" height="105.156" fill="#F1F1F1" style="stroke:#181818;stroke-width:0.5;" rx="2.5" ry="2.5"/><ellipse cx="755.125" cy="739.033" rx="11" ry="11" fill="#ADD1B2" style="stroke:#181818;stroke-width:1;"/><path d="M758.094,744.673 Q757.516,744.97 756.875,745.111 Q756.234,745.267 755.531,745.267 Q753.031,745.267 751.703,743.627 Q750.391,741.97 750.391,738.845 Q750.391,735.72 751.703,734.064 Q753.031,732.408 755.531,732.408 Q756.234,732.408 756.875,732.564 Q757.531,732.72 758.094,733.017 L758.094,735.736 Q757.469,735.158 756.875,734.892 Q756.281,734.611 755.656,734.611 Q754.312,734.611 753.625,735.689 Q752.937,736.752 752.937,738.845 Q752.937,740.939 753.625,742.017 Q754.312,743.08 755.656,743.08 Q756.281,743.08 756.875,742.814 Q757.469,742.533 758.094,741.955 L758.094,744.673 Z " fill="#000"/><text x="795.686" y="735.039" fill="#000" font-size="12" textLength="71.145" font-style="italic">«dataType»</text><text x="769.646" y="750.864" fill="#000" font-size="14" textLength="123.225">HybridCoordinate</text><line x1="738.78" y1="759.166" x2="897.216" y2="759.166" style="stroke:#181818;stroke-width:0.5;"/><text x="743.78" y="776.161" fill="#000" font-size="14" textLength="139.993">+textCoords: float[]</text><text x="743.78" y="792.458" fill="#000" font-size="14" textLength="148.436">+metaCoords: float[]</text><line x1="738.78" y1="799.759" x2="897.216" y2="799.759" style="stroke:#181818;stroke-width:0.5;"/><text x="743.78" y="816.754" fill="#000" font-size="14" textLength="126.205">+toArray(): float[]</text></g><!--class SpatialKNNPredictor--><g class="entity" data-qualified-name="4. Spatial Inference . Tariff.SpatialKNNPredictor" id="ent0016" data-source-line="48"><rect x="1082.56" y="545.72" width="466.87" height="113.188" fill="#F1F1F1" style="stroke:#181818;stroke-width:0.5;" rx="2.5" ry="2.5"/><ellipse cx="1241.034" cy="561.72" rx="11" ry="11" fill="#ADD1B2" style="stroke:#181818;stroke-width:1;"/><path d="M1244.003,567.361 Q1243.425,567.658 1242.784,567.798 Q1242.143,567.954 1241.44,567.954 Q1238.94,567.954 1237.612,566.314 Q1236.3,564.658 1236.3,561.533 Q1236.3,558.408 1237.612,556.751 Q1238.94,555.095 1241.44,555.095 Q1242.143,555.095 1242.784,555.251 Q1243.44,555.408 1244.003,555.704 L1244.003,558.423 Q1243.378,557.845 1242.784,557.579 Q1242.19,557.298 1241.565,557.298 Q1240.222,557.298 1239.534,558.376 Q1238.847,559.439 1238.847,561.533 Q1238.847,563.626 1239.534,564.704 Q1240.222,565.767 1241.565,565.767 Q1242.19,565.767 1242.784,565.501 Q1243.378,565.22 1244.003,564.642 L1244.003,567.361 Z " fill="#000"/><text x="1261.534" y="566.567" fill="#000" font-size="14" textLength="141.422">SpatialKNNPredictor</text><line x1="1083.56" y1="577.72" x2="1548.43" y2="577.72" style="stroke:#181818;stroke-width:0.5;"/><text x="1088.56" y="594.715" fill="#000" font-size="14" textLength="141.354">-kNeighbors: int = 5</text><line x1="1083.56" y1="602.017" x2="1548.43" y2="602.017" style="stroke:#181818;stroke-width:0.5;"/><text x="1088.56" y="619.012" fill="#000" font-size="14" textLength="176.271">+routePartition(industry)</text><text x="1088.56" y="635.309" fill="#000" font-size="14" textLength="454.87">+findNeighbors(c: HybridCoordinate, ind): List&lt;NeighborMatch></text><text x="1088.56" y="651.606" fill="#000" font-size="14" textLength="266.608">+executeRegression(neighbors): float</text></g><!--class NeighborMatch--><g class="entity" data-qualified-name="4. Spatial Inference . Tariff.NeighborMatch" id="ent0018" data-source-line="54"><rect x="1246.67" y="718.9" width="138.661" height="105.156" fill="#F1F1F1" style="stroke:#181818;stroke-width:0.5;" rx="2.5" ry="2.5"/><ellipse cx="1261.67" cy="739.033" rx="11" ry="11" fill="#ADD1B2" style="stroke:#181818;stroke-width:1;"/><path d="M1264.639,744.673 Q1264.061,744.97 1263.42,745.111 Q1262.779,745.267 1262.076,745.267 Q1259.576,745.267 1258.248,743.627 Q1256.936,741.97 1256.936,738.845 Q1256.936,735.72 1258.248,734.064 Q1259.576,732.408 1262.076,732.408 Q1262.779,732.408 1263.42,732.564 Q1264.076,732.72 1264.639,733.017 L1264.639,735.736 Q1264.014,735.158 1263.42,734.892 Q1262.826,734.611 1262.201,734.611 Q1260.858,734.611 1260.17,735.689 Q1259.483,736.752 1259.483,738.845 Q1259.483,740.939 1260.17,742.017 Q1260.858,743.08 1262.201,743.08 Q1262.826,743.08 1263.42,742.814 Q1264.014,742.533 1264.639,741.955 L1264.639,744.673 Z " fill="#000"/><text x="1293.428" y="735.039" fill="#000" font-size="12" textLength="71.145" font-style="italic">«dataType»</text><text x="1275.67" y="750.864" fill="#000" font-size="14" textLength="106.661">NeighborMatch</text><line x1="1247.67" y1="759.166" x2="1384.331" y2="759.166" style="stroke:#181818;stroke-width:0.5;"/><text x="1252.67" y="776.161" fill="#000" font-size="14" textLength="117.906">+listingId: String</text><text x="1252.67" y="792.458" fill="#000" font-size="14" textLength="111.672">+distance: float</text><text x="1252.67" y="808.754" fill="#000" font-size="14" textLength="80.787">+rate: float</text><line x1="1247.67" y1="816.056" x2="1384.331" y2="816.056" style="stroke:#181818;stroke-width:0.5;"/></g><!--class MpesaTariffEvaluator--><g class="entity" data-qualified-name="4. Spatial Inference . Tariff.MpesaTariffEvaluator" id="ent0019" data-source-line="59"><rect x="1584.02" y="562.01" width="373.963" height="80.594" fill="#F1F1F1" style="stroke:#181818;stroke-width:0.5;" rx="2.5" ry="2.5"/><ellipse cx="1692.277" cy="578.01" rx="11" ry="11" fill="#ADD1B2" style="stroke:#181818;stroke-width:1;"/><path d="M1695.246,583.651 Q1694.668,583.948 1694.027,584.088 Q1693.387,584.244 1692.684,584.244 Q1690.184,584.244 1688.855,582.604 Q1687.543,580.948 1687.543,577.823 Q1687.543,574.698 1688.855,573.041 Q1690.184,571.385 1692.684,571.385 Q1693.387,571.385 1694.027,571.541 Q1694.684,571.698 1695.246,571.994 L1695.246,574.713 Q1694.621,574.135 1694.027,573.869 Q1693.434,573.588 1692.809,573.588 Q1691.465,573.588 1690.777,574.666 Q1690.09,575.729 1690.09,577.823 Q1690.09,579.916 1690.777,580.994 Q1691.465,582.057 1692.809,582.057 Q1693.434,582.057 1694.027,581.791 Q1694.621,581.51 1695.246,580.932 L1695.246,583.651 Z " fill="#000"/><text x="1712.777" y="582.857" fill="#000" font-size="14" textLength="148.948">MpesaTariffEvaluator</text><line x1="1585.02" y1="594.01" x2="1956.983" y2="594.01" style="stroke:#181818;stroke-width:0.5;"/><line x1="1585.02" y1="602.01" x2="1956.983" y2="602.01" style="stroke:#181818;stroke-width:0.5;"/><text x="1590.02" y="619.005" fill="#000" font-size="14" textLength="304.192">+calculateTariffSurcharge(rate: float): float</text><text x="1590.02" y="635.302" fill="#000" font-size="14" textLength="361.963">+calculateFinalQuote(rate: float): Pair&lt;float, float></text></g><!--class FirestoreRepository--><g class="entity" data-qualified-name="5. Persistence Layer.FirestoreRepository" id="ent0021" data-source-line="66"><rect x="2061.77" y="562.01" width="302.452" height="80.594" fill="#F1F1F1" style="stroke:#181818;stroke-width:0.5;" rx="2.5" ry="2.5"/><ellipse cx="2140.195" cy="578.01" rx="11" ry="11" fill="#ADD1B2" style="stroke:#181818;stroke-width:1;"/><path d="M2143.164,583.651 Q2142.586,583.948 2141.945,584.088 Q2141.305,584.244 2140.602,584.244 Q2138.102,584.244 2136.773,582.604 Q2135.461,580.948 2135.461,577.823 Q2135.461,574.698 2136.773,573.041 Q2138.102,571.385 2140.602,571.385 Q2141.305,571.385 2141.945,571.541 Q2142.602,571.698 2143.164,571.994 L2143.164,574.713 Q2142.539,574.135 2141.945,573.869 Q2141.352,573.588 2140.727,573.588 Q2139.383,573.588 2138.695,574.666 Q2138.008,575.729 2138.008,577.823 Q2138.008,579.916 2138.695,580.994 Q2139.383,582.057 2140.727,582.057 Q2141.352,582.057 2141.945,581.791 Q2142.539,581.51 2143.164,580.932 L2143.164,583.651 Z " fill="#000"/><text x="2160.695" y="582.857" fill="#000" font-size="14" textLength="137.102">FirestoreRepository</text><line x1="2062.77" y1="594.01" x2="2363.222" y2="594.01" style="stroke:#181818;stroke-width:0.5;"/><line x1="2062.77" y1="602.01" x2="2363.222" y2="602.01" style="stroke:#181818;stroke-width:0.5;"/><text x="2067.77" y="619.005" fill="#000" font-size="14" textLength="269.883">+fetchHistoricalVectors(partition): List</text><text x="2067.77" y="635.302" fill="#000" font-size="14" textLength="290.452">+logAudit(tx: HistoricalTransaction): bool</text></g><!--link FastAPIController to PricingPipelineOrchestrator--><g class="link" data-entity-1="ent0002" data-entity-2="ent0006" id="lnk23" data-source-line="73" data-link-type="dependency"><path d="M959.24,156.86 C959.24,195 959.24,250.15 959.24,293.41" style="stroke:#181818;stroke-width:1;stroke-dasharray:7,7;" fill="none" id="FastAPIController-to-PricingPipelineOrchestrator" codeLine="73"/><polygon points="959.24,298.41,963.24,289.41,959.24,293.41,955.24,289.41,959.24,298.41" fill="#181818" style="stroke:#181818;stroke-width:1;stroke-linejoin:miter;stroke-miterlimit:10;"/></g><!--link MLOpsController to PricingPipelineOrchestrator--><g class="link" data-entity-1="ent0004" data-entity-2="ent0006" id="lnk24" data-source-line="74" data-link-type="dependency"><path d="M1212.77,156.86 C1212.77,195 1212.77,250.15 1212.77,293.41" style="stroke:#181818;stroke-width:1;stroke-dasharray:7,7;" fill="none" id="MLOpsController-to-PricingPipelineOrchestrator" codeLine="74"/><polygon points="1212.77,298.41,1216.77,289.41,1212.77,293.41,1208.77,289.41,1212.77,298.41" fill="#181818" style="stroke:#181818;stroke-width:1;stroke-linejoin:miter;stroke-miterlimit:10;"/></g><!--link PricingPipelineOrchestrator to BaseTextVectorizer--><g class="link" data-entity-1="ent0006" data-entity-2="ent0009" id="lnk25" data-source-line="77" data-link-type="composition"><path d="M818.66,369.06 C720.01,369.06 639.92,369.06 639.92,369.06 C639.92,369.06 639.92,772.06 639.92,772.06 C639.92,772.06 385.06,772.06 241.93,772.06" style="stroke:#181818;stroke-width:1;" fill="none" id="PricingPipelineOrchestrator-BaseTextVectorizer" codeLine="77"/><polygon points="830.66,369.06,824.66,365.06,818.66,369.06,824.66,373.06,830.66,369.06" fill="#181818" style="stroke:#181818;stroke-width:1;stroke-linejoin:miter;stroke-miterlimit:10;"/><polygon points="236.93,772.06,245.93,776.06,241.93,772.06,245.93,768.06,236.93,772.06" fill="#181818" style="stroke:#181818;stroke-width:1;stroke-linejoin:miter;stroke-miterlimit:10;"/></g><!--link PricingPipelineOrchestrator to MetadataNormalizer--><g class="link" data-entity-1="ent0006" data-entity-2="ent0012" id="lnk26" data-source-line="78" data-link-type="composition"><path d="M818.67,334.06 C647.49,334.06 458,334.06 458,334.06 C458,334.06 458,493.2 458,564.69" style="stroke:#181818;stroke-width:1;" fill="none" id="PricingPipelineOrchestrator-MetadataNormalizer" codeLine="78"/><polygon points="830.67,334.06,824.67,330.06,818.67,334.06,824.67,338.06,830.67,334.06" fill="#181818" style="stroke:#181818;stroke-width:1;stroke-linejoin:miter;stroke-miterlimit:10;"/><polygon points="458,569.69,462,560.69,458,564.69,454,560.69,458,569.69" fill="#181818" style="stroke:#181818;stroke-width:1;stroke-linejoin:miter;stroke-miterlimit:10;"/></g><!--link PricingPipelineOrchestrator to VectorFusionService--><g class="link" data-entity-1="ent0006" data-entity-2="ent0013" id="lnk27" data-source-line="79" data-link-type="composition"><path d="M904.83,416.1 C904.83,466.19 904.83,522.75 904.83,564.75" style="stroke:#181818;stroke-width:1;" fill="none" id="PricingPipelineOrchestrator-VectorFusionService" codeLine="79"/><polygon points="904.83,404.1,900.83,410.1,904.83,416.1,908.83,410.1,904.83,404.1" fill="#181818" style="stroke:#181818;stroke-width:1;stroke-linejoin:miter;stroke-miterlimit:10;"/><polygon points="904.83,569.75,908.83,560.75,904.83,564.75,900.83,560.75,904.83,569.75" fill="#181818" style="stroke:#181818;stroke-width:1;stroke-linejoin:miter;stroke-miterlimit:10;"/></g><!--link TfidfSvdVectorizer to BaseTextVectorizer--><g class="link" data-entity-1="ent0011" data-entity-2="ent0009" id="lnk28" data-source-line="80" data-link-type="extension"><path d="M145,651.24 C145,672.32 145,679.01 145,700.52" style="stroke:#181818;stroke-width:1;" fill="none" id="TfidfSvdVectorizer-to-BaseTextVectorizer" codeLine="80"/><polygon points="145,718.52,151,700.52,139,700.52,145,718.52" fill="none" style="stroke:#181818;stroke-width:1;stroke-linejoin:miter;stroke-miterlimit:10;"/></g><!--link VectorFusionService to HybridCoordinate--><g class="link" data-entity-1="ent0013" data-entity-2="ent0014" id="lnk29" data-source-line="81" data-link-type="dependency"><path d="M818,634.93 C818,658.64 818,686.26 818,713.67" style="stroke:#181818;stroke-width:1;stroke-dasharray:7,7;" fill="none" id="VectorFusionService-to-HybridCoordinate" codeLine="81"/><polygon points="818,718.67,822,709.67,818,713.67,814,709.67,818,718.67" fill="#181818" style="stroke:#181818;stroke-width:1;stroke-linejoin:miter;stroke-miterlimit:10;"/></g><!--link PricingPipelineOrchestrator to SpatialKNNPredictor--><g class="link" data-entity-1="ent0006" data-entity-2="ent0016" id="lnk30" data-source-line="84" data-link-type="composition"><path d="M1192.86,416.1 C1192.86,457.55 1192.86,498.08 1192.86,540.49" style="stroke:#181818;stroke-width:1;" fill="none" id="PricingPipelineOrchestrator-SpatialKNNPredictor" codeLine="84"/><polygon points="1192.86,404.1,1188.86,410.1,1192.86,416.1,1196.86,410.1,1192.86,404.1" fill="#181818" style="stroke:#181818;stroke-width:1;stroke-linejoin:miter;stroke-miterlimit:10;"/><polygon points="1192.86,545.49,1196.86,536.49,1192.86,540.49,1188.86,536.49,1192.86,545.49" fill="#181818" style="stroke:#181818;stroke-width:1;stroke-linejoin:miter;stroke-miterlimit:10;"/></g><!--link SpatialKNNPredictor to NeighborMatch--><g class="link" data-entity-1="ent0016" data-entity-2="ent0018" id="lnk31" data-source-line="85" data-link-type="dependency"><path d="M1316,659.11 C1316,678.31 1316,694.66 1316,713.54" style="stroke:#181818;stroke-width:1;stroke-dasharray:7,7;" fill="none" id="SpatialKNNPredictor-to-NeighborMatch" codeLine="85"/><polygon points="1316,718.54,1320,709.54,1316,713.54,1312,709.54,1316,718.54" fill="#181818" style="stroke:#181818;stroke-width:1;stroke-linejoin:miter;stroke-miterlimit:10;"/></g><!--link PricingPipelineOrchestrator to MpesaTariffEvaluator--><g class="link" data-entity-1="ent0006" data-entity-2="ent0019" id="lnk32" data-source-line="86" data-link-type="composition"><path d="M1315.38,369.06 C1519.9,369.06 1771,369.06 1771,369.06 C1771,369.06 1771,489.85 1771,556.68" style="stroke:#181818;stroke-width:1;" fill="none" id="PricingPipelineOrchestrator-MpesaTariffEvaluator" codeLine="86"/><polygon points="1303.38,369.06,1309.38,373.06,1315.38,369.06,1309.38,365.06,1303.38,369.06" fill="#181818" style="stroke:#181818;stroke-width:1;stroke-linejoin:miter;stroke-miterlimit:10;"/><polygon points="1771,561.68,1775,552.68,1771,556.68,1767,552.68,1771,561.68" fill="#181818" style="stroke:#181818;stroke-width:1;stroke-linejoin:miter;stroke-miterlimit:10;"/></g><!--link PricingPipelineOrchestrator to FirestoreRepository--><g class="link" data-entity-1="ent0006" data-entity-2="ent0021" id="lnk33" data-source-line="87" data-link-type="aggregation"><path d="M1315.41,334.06 C1650.93,334.06 2213,334.06 2213,334.06 C2213,334.06 2213,481.53 2213,556.57" style="stroke:#181818;stroke-width:1;" fill="none" id="PricingPipelineOrchestrator-FirestoreRepository" codeLine="87"/><polygon points="1303.41,334.06,1309.41,338.06,1315.41,334.06,1309.41,330.06,1303.41,334.06" fill="none" style="stroke:#181818;stroke-width:1;stroke-linejoin:miter;stroke-miterlimit:10;"/><polygon points="2213,561.57,2217,552.57,2213,556.57,2209,552.57,2213,561.57" fill="#181818" style="stroke:#181818;stroke-width:1;stroke-linejoin:miter;stroke-miterlimit:10;"/></g><?plantuml-src bLNRRjj647tNLmnI8A5gIKZRvCLm12XEX1ZnHR64l0Hz62s7rCBKBhiNnshgVyyiBmefqfVgnJGvEtFcp9opJkVWDAorSteBiJGadDHgO6-aoj7W5aI6riwSCtBj7Pq9hPRoNuBNZH2xmLX_bog513DBZI-PLEHsEO4sRgC7Wnp53QO4B_wOm9bA3LaBxxLNCPhT2_Wn0FuL1M6EriqMPwTQEQEpZ0oSdDIHqsaL6dv7e7CdjunfOQIWw9zZ20-Cveidi_kmkXg6DnJBehDhiZvp_BP8SD-eU75-bTldr6CgqfJCDJc3KaMSldeyp7tVQFZF2InaJe4GEDNQn59XmDFkka9UHruPiI7BkPqEUEOeCAO3D7H7WWTpLP9GvFn_79HfJDb2NVd1hifedyVeQEKLbuXkZa4gDuBl9DEDiyUGP1hTjxyvnLhhh8UCloOm9tJU47nKAPSZ4xRd9SozRN22wz2xS1Kvxz7IYkxSLzvHRNZWWPDP5TDYvJUurGBNFkFXXMqj03RW_wWptqCYNIIqoRqTzWVm7sKJRRQHuzh3VNUT_LabCawMjt43tYz4OyYOCELEzJRNYXziWGdUmTlNZRhzQ9uDuO8Syc3macCnEu1m1Af-7RPSAg-zZV8y7u7GbkTdyR7SPLlbW9PaRbbhhUI9jrJWuy0HR1a9Ft2-JxkraV5-vQcJ-320XnfwMB5j70gFinTnjWsp_1fAFlpLwPank8iw7JRtyiq4bZbB23DsfuGCAMxo9QpGo2HfAxMA-tnvMUbAjyTzSndKiDRcrw2RQjCisGKQ9mkzIXLxthVTiBKAAjxdY4INo17dZRcTSsdTIHrvWKvifbrxkAR2R4CnLIUjgUXCf9NiuN5aN9XbUnOVmz850JU-nVmDcRrcYQfrXlvGuOkSB9PiVxp5p6ERrICGc0aVb5G6BJqR99gKeaRMORVc_jYScSk-UEqEJonGcfFYdr7vRjgp7c_PmybORgrOZ7FSaJcujVW2jGoQ-SwrbVoqQuk4cD5FCeH81bLgYaLORq8rpYR9Eftvc6t1tV4Ax4-kWYMWgCwqRVRL_ag53zBcOOXa1zqBTJAPFdRX30ulnAVYkJ1h8JTQX4rZFo_CpXQDMPRHDGNpAMueEtZifljzF9xskFtJPxh-z_IP7byRz5ZvUFnVBwO-Mmn4TMoFsMbwIcEHdiROOpQ3FWCAXLlYVGPbFP9xz9GEfths_2S0?></g></svg>